<svg width="71" height="43" viewBox="0 0 71 43" fill="none" xmlns="http://www.w3.org/2000/svg">
<path fill-rule="evenodd" clip-rule="evenodd" d="M19.8969 20.2129C25.6059 23.0706 31.0656 28.414 33.6677 31.1828L35.1689 32.7802L36.8045 31.3209C43.1762 25.6361 49.6273 22.981 54.9736 22.3477C60.398 21.7053 64.4284 23.1465 66.4061 25.2509C67.2569 26.1563 68.6806 26.2005 69.5859 25.3497C70.4912 24.4989 70.5354 23.0753 69.6846 22.1699C66.4052 18.6802 60.7387 17.1344 54.4444 17.88C48.5713 18.5756 41.9192 21.2699 35.454 26.5581C32.408 23.4928 27.3545 18.9147 21.9108 16.1898C18.6764 14.5708 15.0438 13.4718 11.4842 13.9854C7.78276 14.5195 4.55021 16.7382 2.14817 20.9435C1.53197 22.0222 1.90696 23.3963 2.98575 24.0125C4.06453 24.6287 5.43859 24.2537 6.05479 23.1749C7.88087 19.978 10.0059 18.7443 12.1268 18.4383C14.3896 18.1118 17.0441 18.7849 19.8969 20.2129Z" fill="#001A12"/>
</svg>
