<svg width="31" height="29" viewBox="0 0 31 29" fill="none" xmlns="http://www.w3.org/2000/svg">
<path fill-rule="evenodd" clip-rule="evenodd" d="M15.6781 4.91671C13.5 4.91671 11.4799 5.54101 9.80848 6.6087C8.24924 7.60472 6.99406 8.9863 6.19983 10.6057C6.03571 10.9403 5.61266 11.0872 5.25493 10.9336C4.8972 10.7801 4.74026 10.3843 4.90439 10.0497C5.80757 8.20813 7.23373 6.63888 9.00475 5.50759C10.9055 4.29341 13.2043 3.58337 15.6781 3.58337C16.0717 3.58337 16.3908 3.88185 16.3908 4.25004C16.3908 4.61823 16.0717 4.91671 15.6781 4.91671Z" fill="#02DB96"/>
<path fill-rule="evenodd" clip-rule="evenodd" d="M15.5 0C6.93959 0 0 6.49187 0 14.5C0 22.5081 6.93959 29 15.5 29C24.0604 29 31 22.5081 31 14.5C31 6.49187 24.0604 0 15.5 0ZM9.51026 22.9219C1.44921 19.4425 1.58615 6.42463 9.61174 2.86417C11.3968 2.07225 13.3931 1.62921 15.5 1.62921C17.7242 1.62921 19.8252 2.12296 21.6845 2.99968C29.4456 6.65934 29.5676 19.2492 21.759 22.8063C19.9288 23.64 17.8206 24.1124 15.5 24.1124C13.2896 24.1124 11.275 23.6836 9.51026 22.9219ZM3.1117 20.106C5.33922 24.4058 10.0495 27.3708 15.5 27.3708C20.9199 27.3708 25.6078 24.4391 27.8505 20.1783C25.128 23.5322 20.7971 25.7416 15.5 25.7416C10.1625 25.7416 5.82596 23.4993 3.1117 20.106Z" fill="#02DB96"/>
<path fill-rule="evenodd" clip-rule="evenodd" d="M10.5384 15.037C9.91223 14.4512 9.91223 13.5014 10.5384 12.9157L14.5444 9.1681C15.1706 8.58231 16.1859 8.58231 16.812 9.1681L20.818 12.9156C21.4442 13.5014 21.4442 14.4512 20.818 15.037L16.812 18.7845C16.1858 19.3703 15.1706 19.3703 14.5444 18.7845L10.5384 15.037ZM11.9242 13.9763L15.6782 17.4882L19.4323 13.9763L15.6782 10.4645L11.9242 13.9763Z" fill="#02DB96"/>
</svg>
