<svg width="1325" height="529" viewBox="0 0 1325 529" fill="none" xmlns="http://www.w3.org/2000/svg">
<path fill-rule="evenodd" clip-rule="evenodd" d="M1241.66 465.351C1220.19 454.998 1191.48 465.085 1184.26 494.648C1172.53 496.4 1165.85 502.207 1163.12 508.477C1161.76 511.576 1161.39 514.761 1161.86 517.525C1162.33 520.26 1163.67 522.762 1165.92 524.153C1166.86 524.734 1168.09 524.443 1168.67 523.504C1169.25 522.565 1168.96 521.332 1168.02 520.751C1167.02 520.132 1166.14 518.815 1165.8 516.851C1165.47 514.915 1165.72 512.518 1166.78 510.078C1168.88 505.276 1174.25 500.182 1184.87 498.601C1186.45 498.367 1187.76 497.191 1188.14 495.625C1194.72 468.608 1220.65 459.659 1239.92 468.955C1242.04 469.977 1244.49 468.94 1245.42 466.951C1248.81 459.711 1257.47 454.647 1266.7 452.504C1271.27 451.445 1275.81 451.142 1279.67 451.598C1283.58 452.06 1286.52 453.267 1288.19 454.968C1289.55 456.352 1291.99 456.982 1293.92 455.651C1298.99 452.153 1303.93 452.133 1308.11 453.405C1312.37 454.702 1315.83 457.346 1317.59 459.063C1318.38 459.833 1319.65 459.815 1320.42 459.023C1321.19 458.231 1321.17 456.965 1320.38 456.195C1318.31 454.187 1314.32 451.115 1309.27 449.578C1304.14 448.017 1297.89 448.048 1291.65 452.359C1291.65 452.359 1291.6 452.397 1291.45 452.375C1291.3 452.351 1291.15 452.272 1291.04 452.167C1288.47 449.54 1284.48 448.139 1280.14 447.626C1275.75 447.107 1270.74 447.462 1265.8 448.608C1256.03 450.875 1245.94 456.408 1241.8 465.255C1241.78 465.288 1241.75 465.324 1241.7 465.342C1241.68 465.35 1241.66 465.351 1241.66 465.351Z" fill="#001A12"/>
<path fill-rule="evenodd" clip-rule="evenodd" d="M1100.35 487.873C1079.18 476.126 1049.36 485.005 1040.97 515.188C1040.68 516.252 1041.3 517.355 1042.36 517.65C1043.43 517.946 1044.53 517.323 1044.83 516.259C1052.5 488.657 1079.42 480.833 1098.41 491.372C1100.47 492.514 1102.97 491.619 1104.01 489.687C1107.81 482.653 1116.75 478.094 1126.09 476.483C1130.7 475.688 1135.26 475.645 1139.09 476.322C1142.96 477.007 1145.83 478.381 1147.4 480.175C1148.67 481.634 1151.08 482.403 1153.08 481.185C1158.34 477.983 1163.27 478.246 1167.37 479.756C1171.55 481.294 1174.85 484.132 1176.52 485.947C1177.26 486.762 1178.53 486.816 1179.34 486.07C1180.16 485.324 1180.21 484.058 1179.46 483.244C1177.52 481.121 1173.71 477.826 1168.75 476.002C1163.72 474.149 1157.48 473.822 1151 477.768C1151 477.768 1150.95 477.803 1150.8 477.772C1150.65 477.74 1150.51 477.652 1150.41 477.542C1147.99 474.771 1144.08 473.143 1139.78 472.383C1135.43 471.613 1130.4 471.68 1125.41 472.542C1115.53 474.245 1105.13 479.19 1100.49 487.786C1100.47 487.818 1100.44 487.851 1100.39 487.867C1100.37 487.874 1100.35 487.874 1100.35 487.873Z" fill="#001A12"/>
<path fill-rule="evenodd" clip-rule="evenodd" d="M1189.54 360.75C1185.77 363.166 1183.01 366.563 1181.38 370.394C1179.86 373.969 1179.32 377.92 1179.86 381.8C1179.98 382.602 1179.42 383.343 1178.62 383.456C1177.81 383.568 1177.07 383.009 1176.96 382.208C1176.34 377.795 1176.95 373.306 1178.68 369.247C1180.53 364.889 1183.67 361.024 1187.96 358.28C1188.64 357.844 1189.55 358.042 1189.98 358.724C1190.42 359.406 1190.22 360.313 1189.54 360.75Z" fill="#001A12"/>
<path fill-rule="evenodd" clip-rule="evenodd" d="M1183.4 351.841C1168.57 361.337 1164.24 381.058 1173.74 395.89C1183.23 410.723 1202.96 415.049 1217.79 405.553C1232.62 396.057 1236.95 376.336 1227.45 361.504C1217.96 346.671 1198.23 342.345 1183.4 351.841ZM1183.8 398.014C1177.09 394.463 1172.59 387.379 1172.31 379.793C1171.94 370.098 1176.57 360.468 1185.33 354.858C1194.19 349.189 1205.01 349.07 1213.71 353.607C1220.29 357.038 1224.73 363.9 1225.19 371.304C1225.79 380.825 1221.47 390.436 1211.99 396.501C1202.59 402.518 1192.17 402.445 1183.8 398.014ZM1185.78 402.822C1194.74 408.315 1206.41 408.582 1215.86 402.536C1225.25 396.524 1229.89 385.894 1228.73 375.514C1227.99 384.746 1223.1 393.642 1213.93 399.518C1204.68 405.439 1194.5 406.096 1185.78 402.822Z" fill="#001A12"/>
<path fill-rule="evenodd" clip-rule="evenodd" d="M1192.64 385.195C1190.86 384.805 1189.73 383.046 1190.12 381.266L1192.62 369.882C1193.01 368.102 1194.77 366.976 1196.55 367.366L1207.93 369.864C1209.71 370.254 1210.84 372.013 1210.45 373.793L1207.95 385.177C1207.56 386.957 1205.8 388.083 1204.02 387.693L1192.64 385.195ZM1193.78 381.694L1204.45 384.034L1206.79 373.365L1196.12 371.025L1193.78 381.694Z" fill="#001A12"/>
<path fill-rule="evenodd" clip-rule="evenodd" d="M1183.17 328.801C1184.16 328.446 1185.19 328.775 1185.46 329.534L1188.59 338.337C1188.86 339.096 1188.27 339.999 1187.27 340.354C1186.28 340.708 1185.25 340.38 1184.98 339.62L1181.85 330.818C1181.58 330.058 1182.17 329.155 1183.17 328.801Z" fill="#02DB96"/>
<path fill-rule="evenodd" clip-rule="evenodd" d="M1213.72 414.728C1214.72 414.373 1215.74 414.702 1216.01 415.461L1219.14 424.264C1219.41 425.023 1218.83 425.926 1217.83 426.281C1216.83 426.635 1215.8 426.307 1215.53 425.547L1212.4 416.745C1212.13 415.985 1212.72 415.082 1213.72 414.728Z" fill="#02DB96"/>
<path fill-rule="evenodd" clip-rule="evenodd" d="M1249.24 360.209C1249.59 361.206 1249.26 362.233 1248.5 362.503L1239.7 365.633C1238.94 365.904 1238.04 365.314 1237.68 364.317C1237.33 363.32 1237.66 362.293 1238.42 362.023L1247.22 358.893C1247.98 358.623 1248.88 359.212 1249.24 360.209Z" fill="#02DB96"/>
<path fill-rule="evenodd" clip-rule="evenodd" d="M1163.31 390.764C1163.66 391.761 1163.34 392.788 1162.58 393.058L1153.77 396.189C1153.01 396.459 1152.11 395.869 1151.76 394.872C1151.4 393.875 1151.73 392.848 1152.49 392.578L1161.29 389.448C1162.05 389.178 1162.96 389.767 1163.31 390.764Z" fill="#02DB96"/>
<path fill-rule="evenodd" clip-rule="evenodd" d="M1217.83 426.281C1216.83 426.635 1215.8 426.307 1215.53 425.547L1212.4 416.745C1212.13 415.985 1212.72 415.082 1213.72 414.728C1214.72 414.373 1215.74 414.701 1216.01 415.461L1219.14 424.264C1219.42 425.023 1218.83 425.926 1217.83 426.281Z" fill="#02DB96"/>
<path fill-rule="evenodd" clip-rule="evenodd" d="M1187.27 340.354C1186.28 340.708 1185.25 340.38 1184.98 339.62L1181.85 330.818C1181.58 330.058 1182.17 329.155 1183.17 328.801C1184.16 328.446 1185.19 328.775 1185.46 329.534L1188.59 338.337C1188.86 339.096 1188.27 339.999 1187.27 340.354Z" fill="#02DB96"/>
<path fill-rule="evenodd" clip-rule="evenodd" d="M1239.88 411.085C1239.19 411.89 1238.14 412.12 1237.52 411.597L1230.41 405.539C1229.8 405.016 1229.86 403.939 1230.54 403.134C1231.23 402.328 1232.28 402.099 1232.9 402.622L1240.01 408.68C1240.62 409.203 1240.56 410.279 1239.88 411.085Z" fill="#02DB96"/>
<path fill-rule="evenodd" clip-rule="evenodd" d="M1170.45 351.948C1169.77 352.753 1168.71 352.982 1168.1 352.46L1160.99 346.401C1160.37 345.879 1160.43 344.802 1161.12 343.996C1161.8 343.191 1162.86 342.962 1163.47 343.484L1170.58 349.542C1171.2 350.065 1171.14 351.142 1170.45 351.948Z" fill="#02DB96"/>
<path fill-rule="evenodd" clip-rule="evenodd" d="M1251.37 386.901C1251.18 387.942 1250.38 388.667 1249.59 388.521L1240.4 386.831C1239.61 386.685 1239.12 385.723 1239.31 384.682C1239.5 383.642 1240.3 382.916 1241.1 383.062L1250.28 384.753C1251.08 384.899 1251.56 385.861 1251.37 386.901Z" fill="#02DB96"/>
<path fill-rule="evenodd" clip-rule="evenodd" d="M1161.68 370.399C1161.49 371.44 1160.69 372.165 1159.9 372.019L1150.71 370.329C1149.92 370.183 1149.43 369.221 1149.62 368.18C1149.81 367.14 1150.61 366.414 1151.4 366.56L1160.59 368.251C1161.38 368.397 1161.87 369.359 1161.68 370.399Z" fill="#02DB96"/>
<path fill-rule="evenodd" clip-rule="evenodd" d="M1209.86 326.665C1210.9 326.856 1211.62 327.654 1211.48 328.447L1209.79 337.635C1209.64 338.428 1208.68 338.916 1207.64 338.724C1206.6 338.533 1205.87 337.735 1206.02 336.942L1207.71 327.754C1207.85 326.961 1208.82 326.473 1209.86 326.665Z" fill="#02DB96"/>
<path fill-rule="evenodd" clip-rule="evenodd" d="M1193.36 416.357C1194.4 416.549 1195.12 417.347 1194.98 418.14L1193.28 427.328C1193.14 428.121 1192.18 428.608 1191.14 428.417C1190.1 428.225 1189.37 427.427 1189.52 426.634L1191.21 417.446C1191.35 416.653 1192.31 416.166 1193.36 416.357Z" fill="#02DB96"/>
<path fill-rule="evenodd" clip-rule="evenodd" d="M1234.04 338.161C1234.85 338.847 1235.08 339.901 1234.55 340.515L1228.5 347.627C1227.97 348.24 1226.9 348.182 1226.09 347.496C1225.28 346.809 1225.06 345.756 1225.58 345.142L1231.64 338.03C1232.16 337.416 1233.24 337.475 1234.04 338.161Z" fill="#02DB96"/>
<path fill-rule="evenodd" clip-rule="evenodd" d="M1174.9 407.586C1175.71 408.272 1175.94 409.326 1175.42 409.94L1169.36 417.052C1168.84 417.665 1167.76 417.607 1166.95 416.921C1166.15 416.234 1165.92 415.181 1166.44 414.567L1172.5 407.455C1173.02 406.841 1174.1 406.9 1174.9 407.586Z" fill="#02DB96"/>
<path fill-rule="evenodd" clip-rule="evenodd" d="M989.492 400.039C987.032 401.926 985.138 405.305 983.983 407.602L983.157 409.243L981.714 408.106C978.449 405.533 975.794 404.334 973.664 403.949C971.57 403.57 969.906 403.962 968.536 404.732C965.666 406.343 963.919 409.678 962.736 412.03C962.364 412.77 961.462 413.068 960.722 412.696C959.982 412.324 959.684 411.422 960.056 410.682L960.079 410.637C961.201 408.405 963.301 404.23 967.067 402.116C969.027 401.015 971.397 400.49 974.198 400.997C976.578 401.427 979.208 402.591 982.132 404.671C983.368 402.42 985.228 399.528 987.666 397.659C989.234 396.455 991.141 395.597 993.333 395.705C995.529 395.813 997.756 396.876 999.986 399.011C1000.58 399.584 1000.61 400.533 1000.03 401.132C999.46 401.73 998.51 401.751 997.912 401.178C996.036 399.383 994.459 398.764 993.186 398.701C991.911 398.639 990.686 399.123 989.492 400.039Z" fill="#001A12"/>
<path fill-rule="evenodd" clip-rule="evenodd" d="M1248.34 203.39C1245.34 204.197 1242.31 206.6 1240.36 208.283L1238.97 209.486L1238.07 207.885C1236.03 204.262 1234.04 202.142 1232.21 200.974C1230.42 199.827 1228.73 199.555 1227.17 199.744C1223.91 200.14 1221.02 202.559 1219.03 204.282C1218.41 204.825 1217.46 204.757 1216.92 204.131C1216.37 203.505 1216.44 202.557 1217.07 202.015L1217.1 201.982C1218.99 200.346 1222.53 197.286 1226.81 196.766C1229.04 196.495 1231.44 196.913 1233.83 198.448C1235.87 199.753 1237.86 201.831 1239.77 204.868C1241.77 203.258 1244.59 201.293 1247.56 200.493C1249.46 199.978 1251.55 199.911 1253.54 200.846C1255.53 201.782 1257.18 203.614 1258.43 206.438C1258.77 207.195 1258.42 208.081 1257.67 208.416C1256.91 208.751 1256.02 208.409 1255.69 207.651C1254.64 205.276 1253.42 204.103 1252.26 203.561C1251.11 203.017 1249.79 202.997 1248.34 203.39Z" fill="#001A12"/>
<path fill-rule="evenodd" clip-rule="evenodd" d="M1121.96 44.208C1123.38 46.6861 1125.46 48.5495 1127.85 49.7074C1130.07 50.7876 1132.57 51.2533 1135.06 51.0289C1135.57 50.9825 1136.03 51.3615 1136.07 51.8755C1136.12 52.3894 1135.74 52.8437 1135.23 52.89C1132.4 53.1453 1129.56 52.6158 1127.03 51.3889C1124.32 50.0721 1121.95 47.9514 1120.34 45.1368C1120.09 44.689 1120.24 44.1181 1120.69 43.8616C1121.14 43.6051 1121.71 43.7602 1121.96 44.208Z" fill="#001A12"/>
<path fill-rule="evenodd" clip-rule="evenodd" d="M1116.1 47.8355C1121.68 57.5749 1134.1 60.9482 1143.84 55.3699C1153.57 49.7916 1156.95 37.3742 1151.37 27.6347C1145.79 17.8953 1133.37 14.5221 1123.63 20.1004C1113.9 25.6787 1110.52 38.0961 1116.1 47.8355ZM1147.18 45.2527C1144.94 52.5059 1136.81 57.0641 1129.44 55.2554C1124.81 54.1198 1120.64 51.163 1118.08 46.7007C1115.47 42.1465 1115.07 36.9328 1116.54 32.2943C1118.77 25.2204 1126.58 20.6484 1133.82 22.2597C1138.43 23.2837 1142.66 26.2046 1145.43 31.0394C1148.15 35.7947 1148.55 40.8214 1147.18 45.2527ZM1148.63 47.9246C1152.4 42.3951 1152.94 34.9708 1149.39 28.7696C1145.86 22.6033 1139.24 19.3119 1132.59 19.7282C1138.45 20.4895 1143.96 23.8779 1147.41 29.9045C1150.89 35.9771 1150.98 42.4728 1148.63 47.9246Z" fill="#001A12"/>
<path fill-rule="evenodd" clip-rule="evenodd" d="M93.0886 447.006C83.4992 443.82 72.6716 445.412 64.0535 451.47C64.052 451.471 64.0509 451.472 64.0487 451.472C64.046 451.473 64.0386 451.476 64.0249 451.478C63.9957 451.482 63.9414 451.482 63.8683 451.461C63.705 451.413 63.5855 451.305 63.5363 451.214C59.9871 444.651 51.658 441.409 43.7549 441.112C35.845 440.814 27.2705 443.425 23.1993 449.894C23.1672 449.945 23.1159 449.986 23.0633 450.005C23.0395 450.014 23.0227 450.016 23.0149 450.016C23.0112 450.016 23.0093 450.016 23.0089 450.016L23.0084 450.016C16.9294 447.827 12.2557 448.295 8.69341 449.953C5.21102 451.573 3.03825 454.224 1.74709 455.876C1.06693 456.746 1.2211 458.003 2.09142 458.683C2.96174 459.363 4.21866 459.209 4.89882 458.339C6.13128 456.762 7.81434 454.774 10.3809 453.579C12.8676 452.422 16.436 451.9 21.6531 453.779C23.5748 454.471 25.5964 453.595 26.5846 452.025C29.564 447.291 36.367 444.837 43.6045 445.109C50.8489 445.381 57.4369 448.344 60.0178 453.117C61.142 455.196 64.0966 456.329 66.3539 454.742C73.9582 449.397 83.4681 448.024 91.8275 450.802C100.137 453.562 107.452 460.472 110.617 472.012C111.194 474.114 113.362 475.35 115.448 474.832C123.473 472.838 128.438 475.143 131.366 478.432C134.433 481.875 135.474 486.625 135.095 489.67C134.959 490.766 135.737 491.765 136.833 491.902C137.929 492.038 138.928 491.26 139.065 490.164C139.577 486.046 138.232 480.128 134.354 475.772C130.337 471.261 123.799 468.636 114.485 470.949C114.483 470.949 114.479 470.947 114.474 470.945C114.473 470.944 114.472 470.944 114.472 470.943C110.968 458.184 102.725 450.207 93.0886 447.006Z" fill="#001A12"/>
<path fill-rule="evenodd" clip-rule="evenodd" d="M199.012 493.152C188.94 492.351 178.806 496.484 171.886 504.426C171.884 504.428 171.883 504.428 171.881 504.43C171.879 504.431 171.873 504.436 171.86 504.441C171.832 504.451 171.78 504.464 171.703 504.461C171.534 504.455 171.392 504.378 171.322 504.301C166.083 498.529 156.645 497.517 148.621 499.461C140.601 501.404 132.756 506.615 131.319 514.708C131.126 515.796 131.852 516.834 132.939 517.027C134.027 517.22 135.065 516.495 135.258 515.407C136.285 509.62 142.188 505.136 149.563 503.348C156.937 501.562 164.543 502.784 168.36 506.99C169.949 508.74 173.089 509.134 174.901 507.054C181.008 500.046 189.914 496.441 198.695 497.14C207.424 497.835 216.178 502.796 222.009 513.245C223.071 515.148 225.472 515.831 227.374 514.829C234.69 510.975 240.062 512.027 243.691 514.521C247.492 517.131 249.638 521.494 249.998 524.542C250.127 525.639 251.121 526.423 252.218 526.294C253.315 526.164 254.1 525.17 253.97 524.073C253.484 519.951 250.764 514.526 245.956 511.224C240.979 507.804 234.003 506.817 225.511 511.289C225.509 511.289 225.504 511.289 225.499 511.287C225.498 511.287 225.497 511.287 225.497 511.286C219.045 499.734 209.135 493.958 199.012 493.152Z" fill="#001A12"/>
<path fill-rule="evenodd" clip-rule="evenodd" d="M184.548 414.318C181.27 413.54 177.992 413.823 175.069 414.944C172.342 415.99 169.926 417.765 168.113 420.086C167.738 420.566 167.046 420.651 166.566 420.277C166.086 419.902 166.001 419.209 166.376 418.729C168.438 416.089 171.183 414.074 174.28 412.886C177.603 411.611 181.334 411.29 185.057 412.173C185.649 412.313 186.015 412.907 185.875 413.5C185.734 414.092 185.14 414.458 184.548 414.318Z" fill="#001A12"/>
<path fill-rule="evenodd" clip-rule="evenodd" d="M186.156 406.345C173.273 403.289 160.352 411.255 157.297 424.138C154.241 437.021 162.208 449.942 175.091 452.997C187.973 456.053 200.894 448.086 203.949 435.203C207.005 422.321 199.039 409.4 186.156 406.345ZM162.378 433.35C159.296 426.412 161.409 417.774 167.344 413.042C172.281 409.104 178.913 407.395 185.534 408.965C192.26 410.561 197.476 415.185 200.08 421.05C203.09 427.83 201.16 436.258 195.471 441.02C190.698 445.016 184.12 446.834 176.955 445.134C169.878 443.456 164.875 438.971 162.378 433.35ZM159.841 434.267C161.552 441.98 167.51 448.431 175.712 450.376C183.869 452.311 192.042 449.268 197.043 443.214C191.666 447.638 184.305 449.646 176.334 447.755C168.301 445.85 162.631 440.695 159.841 434.267Z" fill="#001A12"/>
<path fill-rule="evenodd" clip-rule="evenodd" d="M172.951 428.764C172.233 427.598 172.595 426.07 173.761 425.351L181.22 420.752C182.385 420.033 183.913 420.396 184.632 421.562L189.231 429.02C189.95 430.186 189.587 431.714 188.421 432.433L180.963 437.032C179.797 437.751 178.269 437.388 177.55 436.222L172.951 428.764ZM175.442 427.552L179.751 434.542L186.741 430.232L182.431 423.242L175.442 427.552Z" fill="#001A12"/>
<path fill-rule="evenodd" clip-rule="evenodd" d="M134.234 300.762C138.23 302.228 142.248 305.36 144.18 306.999L145.294 307.945L146.268 306.856C150.064 302.612 154.14 300.37 157.635 299.55C161.181 298.718 163.96 299.371 165.428 300.617C166.059 301.153 167.006 301.076 167.542 300.444C168.078 299.813 168.001 298.866 167.369 298.33C164.935 296.263 161.064 295.664 156.95 296.629C153.11 297.53 148.905 299.813 145.017 303.801C142.769 301.998 139.078 299.343 135.267 297.946C133.002 297.115 130.513 296.659 128.193 297.266C125.78 297.897 123.805 299.609 122.528 302.576C122.201 303.336 122.552 304.219 123.313 304.546C124.074 304.874 124.956 304.522 125.284 303.762C126.254 301.507 127.57 300.53 128.952 300.168C130.427 299.782 132.236 300.03 134.234 300.762Z" fill="#001A12"/>
<path fill-rule="evenodd" clip-rule="evenodd" d="M31.6596 199.595C29.1531 201.094 27.2879 203.253 26.1501 205.717C25.0887 208.015 24.6609 210.579 24.9385 213.118C24.9959 213.642 24.6171 214.114 24.0925 214.172C23.5678 214.229 23.096 213.85 23.0387 213.325C22.7229 210.438 23.2094 207.526 24.4149 204.916C25.7088 202.114 27.8316 199.658 30.6785 197.955C31.1314 197.684 31.7182 197.832 31.9891 198.284C32.26 198.737 32.1125 199.324 31.6596 199.595Z" fill="#001A12"/>
<path fill-rule="evenodd" clip-rule="evenodd" d="M27.8367 193.67C17.9858 199.562 14.7769 212.325 20.6696 222.176C26.5623 232.027 39.325 235.236 49.1759 229.343C59.0269 223.45 62.2357 210.688 56.343 200.837C50.4504 190.986 37.6877 187.777 27.8367 193.67ZM30.8307 225.33C23.568 223.121 18.8876 215.135 20.4526 207.707C21.4754 202.852 24.4419 198.422 29.0355 195.674C33.7201 192.871 39.1466 192.388 43.9797 193.888C51.0653 196.086 55.7502 203.756 54.381 211.047C53.4758 215.868 50.5554 220.354 45.5794 223.331C40.6818 226.26 35.4499 226.735 30.8307 225.33ZM28.3755 226.93C34.1028 230.686 41.7049 231.091 47.9771 227.339C54.2141 223.608 57.4514 216.775 56.8971 209.99C56.232 215.989 52.8739 221.688 46.7782 225.335C40.6361 229.009 33.9958 229.236 28.3755 226.93Z" fill="#001A12"/>
<path fill-rule="evenodd" clip-rule="evenodd" d="M176.185 39.5076C174.546 36.7587 172.183 34.7115 169.484 33.4612C166.967 32.2947 164.158 31.8223 161.376 32.123C160.801 32.1851 160.284 31.7693 160.222 31.1943C160.16 30.6193 160.576 30.1028 161.151 30.0406C164.315 29.6987 167.506 30.2359 170.365 31.5608C173.434 32.9827 176.122 35.3126 177.984 38.4348C178.28 38.9315 178.118 39.5744 177.621 39.8706C177.124 40.1669 176.482 40.0044 176.185 39.5076Z" fill="#001A12"/>
<path fill-rule="evenodd" clip-rule="evenodd" d="M182.684 35.3266C176.241 24.5227 162.259 20.9881 151.455 27.4319C140.651 33.8756 137.116 47.8576 143.56 58.6615C150.004 69.4654 163.986 73 174.79 66.5562C185.594 60.1125 189.128 46.1305 182.684 35.3266ZM148.334 37.5242C150.958 30.4009 158.733 25.844 166.233 27.0162C171.97 27.9128 177.28 31.2611 180.486 36.6375C183.748 42.1059 184.13 48.4916 182.077 54.0309C179.499 60.9875 172.015 65.5361 164.66 64.5615C158.981 63.809 153.625 60.5486 150.154 54.7286C146.729 48.9862 146.379 42.829 148.334 37.5242ZM146.234 35.8699C142.11 42.1411 141.655 50.4716 145.758 57.3506C149.838 64.1909 157.322 67.7483 164.758 67.1504C158.184 66.4131 151.943 62.7249 147.956 56.0396C143.938 49.3033 143.699 42.026 146.234 35.8699Z" fill="#001A12"/>
<path fill-rule="evenodd" clip-rule="evenodd" d="M158.663 41.1642C158.982 39.9026 160.263 39.1383 161.525 39.4573L169.596 41.4977C170.858 41.8166 171.622 43.0979 171.303 44.3596L169.263 52.4309C168.944 53.6926 167.663 54.4568 166.401 54.1378L158.33 52.0974C157.068 51.7785 156.304 50.4972 156.623 49.2355L158.663 41.1642ZM161.137 42.0597L159.225 49.6234L166.789 51.5354L168.701 43.9718L161.137 42.0597Z" fill="#001A12"/>
<path fill-rule="evenodd" clip-rule="evenodd" d="M199.139 35.6787C199.369 36.3984 199.112 37.1244 198.563 37.3L192.208 39.3356C191.66 39.5113 191.028 39.0702 190.798 38.3504C190.567 37.6306 190.825 36.9047 191.373 36.729L197.728 34.6934C198.277 34.5178 198.908 34.9589 199.139 35.6787Z" fill="#02DB96"/>
<path fill-rule="evenodd" clip-rule="evenodd" d="M137.102 55.5494C137.333 56.2692 137.075 56.9951 136.527 57.1708L130.171 59.2064C129.623 59.382 128.992 58.9409 128.761 58.2212C128.53 57.5014 128.788 56.7755 129.337 56.5998L135.692 54.5642C136.24 54.3886 136.872 54.8297 137.102 55.5494Z" fill="#02DB96"/>
<path fill-rule="evenodd" clip-rule="evenodd" d="M175.221 82.1388C174.501 82.3694 173.776 82.1117 173.6 81.5633L171.564 75.2082C171.389 74.6598 171.83 74.0283 172.55 73.7978C173.269 73.5672 173.995 73.8249 174.171 74.3733L176.206 80.7284C176.382 81.2768 175.941 81.9083 175.221 82.1388Z" fill="#02DB96"/>
<path fill-rule="evenodd" clip-rule="evenodd" d="M155.35 20.1021C154.631 20.3327 153.905 20.075 153.729 19.5266L151.693 13.1715C151.518 12.6231 151.959 11.9916 152.679 11.761C153.398 11.5305 154.124 11.7882 154.3 12.3366L156.336 18.6917C156.511 19.2401 156.07 19.8715 155.35 20.1021Z" fill="#02DB96"/>
<path fill-rule="evenodd" clip-rule="evenodd" d="M128.761 58.2212C128.531 57.5014 128.788 56.7755 129.337 56.5999L135.692 54.5643C136.24 54.3886 136.872 54.8297 137.102 55.5495C137.333 56.2693 137.075 56.9952 136.527 57.1709L130.172 59.2065C129.623 59.3821 128.992 58.941 128.761 58.2212Z" fill="#02DB96"/>
<path fill-rule="evenodd" clip-rule="evenodd" d="M190.798 38.3504C190.567 37.6306 190.825 36.9047 191.373 36.7291L197.728 34.6935C198.277 34.5178 198.908 34.9589 199.139 35.6787C199.369 36.3985 199.112 37.1244 198.563 37.3001L192.208 39.3357C191.66 39.5113 191.028 39.0702 190.798 38.3504Z" fill="#02DB96"/>
<path fill-rule="evenodd" clip-rule="evenodd" d="M139.111 74.3055C138.552 73.7974 138.412 73.0399 138.799 72.6136L143.285 67.6732C143.672 67.2469 144.439 67.3131 144.999 67.8212C145.559 68.3293 145.698 69.0868 145.311 69.5131L140.825 74.4535C140.438 74.8799 139.671 74.8136 139.111 74.3055Z" fill="#02DB96"/>
<path fill-rule="evenodd" clip-rule="evenodd" d="M182.901 26.0786C182.342 25.5705 182.202 24.813 182.589 24.3867L187.075 19.4463C187.462 19.0199 188.229 19.0862 188.789 19.5943C189.348 20.1024 189.488 20.8598 189.101 21.2862L184.615 26.2266C184.228 26.6529 183.461 26.5867 182.901 26.0786Z" fill="#02DB96"/>
<path fill-rule="evenodd" clip-rule="evenodd" d="M156.117 83.06C155.378 82.8998 154.878 82.3137 155 81.7509L156.415 75.2294C156.537 74.6667 157.235 74.3403 157.973 74.5006C158.712 74.6608 159.212 75.2469 159.09 75.8097L157.675 82.3311C157.553 82.8939 156.855 83.2202 156.117 83.06Z" fill="#02DB96"/>
<path fill-rule="evenodd" clip-rule="evenodd" d="M169.926 19.3993C169.188 19.2391 168.688 18.653 168.81 18.0902L170.225 11.5687C170.347 11.006 171.045 10.6796 171.783 10.8399C172.522 11.0001 173.022 11.5862 172.9 12.149L171.485 18.6704C171.363 19.2332 170.665 19.5595 169.926 19.3993Z" fill="#02DB96"/>
<path fill-rule="evenodd" clip-rule="evenodd" d="M200.06 54.7832C199.9 55.5219 199.314 56.0217 198.751 55.8996L192.229 54.4849C191.667 54.3628 191.34 53.6651 191.501 52.9265C191.661 52.1878 192.247 51.688 192.81 51.8101L199.331 53.2248C199.894 53.3469 200.22 54.0446 200.06 54.7832Z" fill="#02DB96"/>
<path fill-rule="evenodd" clip-rule="evenodd" d="M136.399 40.9734C136.239 41.712 135.653 42.2118 135.09 42.0897L128.569 40.6751C128.006 40.553 127.68 39.8552 127.84 39.1166C128 38.378 128.586 37.8782 129.149 38.0002L135.67 39.4149C136.233 39.537 136.56 40.2348 136.399 40.9734Z" fill="#02DB96"/>
<path fill-rule="evenodd" clip-rule="evenodd" d="M191.306 71.7889C190.797 72.3484 190.04 72.4882 189.614 72.1011L184.673 67.6152C184.247 67.2281 184.313 66.4607 184.821 65.9011C185.329 65.3416 186.087 65.2018 186.513 65.5889L191.454 70.0748C191.88 70.4619 191.814 71.2293 191.306 71.7889Z" fill="#02DB96"/>
<path fill-rule="evenodd" clip-rule="evenodd" d="M143.079 27.9989C142.571 28.5585 141.813 28.6983 141.387 28.3112L136.446 23.8253C136.02 23.4382 136.086 22.6708 136.594 22.1112C137.102 21.5517 137.86 21.4119 138.286 21.799L143.227 26.2848C143.653 26.672 143.587 27.4394 143.079 27.9989Z" fill="#02DB96"/>
</svg>
