<svg width="120" height="35" viewBox="0 0 120 35" fill="none" xmlns="http://www.w3.org/2000/svg">
  <path
    d="M54.9547 27.9838C59.8187 27.9838 62.5067 25.3669 64.0427 22.6853L60.1387 20.7792C59.2427 22.5561 57.3227 23.913 54.9547 23.913C51.2427 23.913 48.4267 20.9084 48.4267 16.8376C48.4267 12.7669 51.2427 9.76226 54.9547 9.76226C57.3227 9.76226 59.2427 11.1515 60.1387 12.8961L64.0427 10.9576C62.5387 8.27611 59.8187 5.6915 54.9547 5.6915C48.7147 5.6915 43.7547 10.2146 43.7547 16.8376C43.7547 23.4607 48.7147 27.9838 54.9547 27.9838Z"
    fill="#001912"/>
  <path
    d="M77.1154 27.5961H81.1794V16.5146C81.1794 13.4776 79.5474 11.6038 76.1554 11.6038C73.6274 11.6038 71.7074 12.8315 70.7154 14.0269V6.04688H66.6514V27.5961H70.7154V17.0961C71.4194 16.1592 72.6674 15.2546 74.2354 15.2546C75.9954 15.2546 77.1154 15.933 77.1154 18.0976V27.5961Z"
    fill="#001912"/>
  <path
    d="M94.4939 27.5961H98.5579V17.5161C98.5579 13.0253 95.3259 11.6038 91.8059 11.6038C89.3739 11.6038 86.9419 12.3792 85.0539 14.0592L86.5899 16.8053C87.9019 15.5776 89.4379 14.9638 91.1019 14.9638C93.1499 14.9638 94.4939 15.9976 94.4939 17.5807V19.7453C93.4699 18.4853 91.6459 17.8392 89.5979 17.8392C87.1339 17.8392 84.2219 19.1638 84.2219 22.8146C84.2219 26.3038 87.1339 27.9838 89.5979 27.9838C91.6139 27.9838 93.4379 27.2407 94.4939 25.9807V27.5961ZM94.4939 23.8484C93.8219 24.753 92.5419 25.2053 91.2299 25.2053C89.6299 25.2053 88.3179 24.3653 88.3179 22.9115C88.3179 21.393 89.6299 20.553 91.2299 20.553C92.5419 20.553 93.8219 21.0053 94.4939 21.91V23.8484Z"
    fill="#001912"/>
  <path d="M102.589 27.5961H106.653V17.29C107.325 16.2884 109.117 15.513 110.461 15.513C110.909 15.513 111.293 15.5777 111.581 15.6423V11.6361C109.661 11.6361 107.741 12.7346 106.653 14.1238V11.9915H102.589V27.5961Z" fill="#001912"/>
  <path
    d="M116.136 9.69765C117.48 9.69765 118.568 8.59919 118.568 7.24226C118.568 5.88534 117.48 4.78688 116.136 4.78688C114.824 4.78688 113.704 5.88534 113.704 7.24226C113.704 8.59919 114.824 9.69765 116.136 9.69765ZM114.12 27.5961H118.184V11.9915H114.12V27.5961Z"
    fill="#001912"/>
  <rect width="34.6667" height="35" fill="rgba(0, 0, 0, 0)"/>
  <path
    fill-rule="evenodd"
    clip-rule="evenodd"
    d="M18.1719 15.4108C18.3266 15.6077 18.5881 15.804 19.1328 15.8638C19.3381 15.8863 19.4213 15.8414 19.4557 15.8194C19.5032 15.789 19.6022 15.7033 19.6996 15.4769C19.9083 14.9915 19.9968 14.0943 19.7031 12.9337C19.5103 12.172 19.168 11.3618 18.6608 10.578C18.0509 11.8631 17.7542 13.1499 17.7995 14.1429C17.8286 14.7786 17.9905 15.1798 18.1719 15.4108ZM18.261 5.68097C19.3802 4.51027 20.7461 3.5549 22.3077 3.09385C24.8288 2.34951 27.5574 2.98306 30.0708 5.40994C33.3667 8.59253 33.8933 12.8713 32.6875 16.6588C31.4953 20.4038 28.5915 23.7907 24.8059 25.5152C24.0205 25.8729 23.0967 25.5202 22.7423 24.7273C22.388 23.9344 22.7374 23.0017 23.5227 22.6439C26.4958 21.2896 28.7921 18.6008 29.7172 15.6949C30.6288 12.8315 30.1901 9.88399 27.9143 7.68639C26.0943 5.92897 24.4927 5.73069 23.1835 6.11722C22.2558 6.3911 21.3447 6.99919 20.5344 7.83816C21.6393 9.20305 22.3612 10.713 22.7259 12.1538C23.1286 13.7447 23.132 15.4046 22.5615 16.7313C22.2693 17.4109 21.8052 18.045 21.1269 18.4794C20.4356 18.9221 19.6304 19.0869 18.7957 18.9953C17.5204 18.8554 16.4595 18.3003 15.7272 17.368C15.0216 16.4697 14.732 15.3637 14.6828 14.288C14.5936 12.3353 15.2721 10.1166 16.3829 8.19857C15.6046 7.6403 14.686 7.16563 13.6168 6.82528C10.2195 5.74387 7.79224 6.64261 6.32646 8.18972C4.79769 9.80329 4.14153 12.2992 4.70687 14.6841C5.17422 16.6556 7.10432 19.853 10.258 22.7685C13.3733 25.6486 17.4893 28.0702 22.1228 28.7155C22.9763 28.8343 23.5728 29.6292 23.4551 30.4909C23.3373 31.3526 22.55 31.9548 21.6965 31.8359C16.2767 31.0812 11.5991 28.2795 8.15095 25.0917C4.74114 21.9393 2.33793 18.2242 1.67256 15.4173C0.876405 12.0586 1.76421 8.44799 4.07184 6.01234C6.44245 3.51022 10.144 2.417 14.5549 3.82106C15.978 4.27404 17.2107 4.91619 18.261 5.68097Z"
    fill="#02DB96"/>
</svg>
