<svg fill="none" height="150" viewBox="0 0 160 150" width="160" xmlns="http://www.w3.org/2000/svg"><g clip-rule="evenodd" fill-rule="evenodd"><path d="m74.9999 0c1.5342 0 2.7778.947545 2.7778 2.1164v13.545c0 1.1688-1.2436 2.1164-2.7778 2.1164-1.5341 0-2.7777-.9476-2.7777-2.1164v-13.545c0-1.168855 1.2436-2.1164 2.7777-2.1164z" fill="#001a12"/><path d="m74.9999 132.222c1.5342 0 2.7778.948 2.7778 2.117v13.545c0 1.168-1.2436 2.116-2.7778 2.116-1.5341 0-2.7777-.948-2.7777-2.116v-13.545c0-1.169 1.2436-2.117 2.7777-2.117z" fill="#001a12"/><path d="m17.7778 74.9999c0 1.5342-.9475 2.7778-2.1164 2.7778h-13.54494c-1.168859 0-2.11640488-1.2436-2.11640481-2.7778.00000007-1.5341.94754581-2.7777 2.11640481-2.7777h13.54494c1.1689 0 2.1164 1.2436 2.1164 2.7777z" fill="#02db96"/><path d="m75.0001 150c-1.5342 0-2.7778-.948-2.7778-2.116v-13.545c0-1.169 1.2436-2.117 2.7778-2.117 1.5341 0 2.7777.948 2.7777 2.117v13.545c0 1.168-1.2436 2.116-2.7777 2.116z" fill="#02db96"/><path d="m75.0001 17.7778c-1.5342 0-2.7778-.9475-2.7778-2.1164v-13.54494c0-1.168859 1.2436-2.11640506 2.7778-2.11640493 1.5341.00000013 2.7777.94754593 2.7777 2.11640493v13.54494c0 1.1689-1.2436 2.1164-2.7777 2.1164z" fill="#02db96"/><path d="m112.5 139.952c-1.328.767-2.879.568-3.464-.444l-6.772-11.731c-.585-1.012.019-2.454 1.347-3.221 1.329-.767 2.88-.569 3.464.444l6.773 11.73c.584 1.012-.019 2.455-1.348 3.222z" fill="#02db96"/><path d="m46.3893 25.4439c-1.3286.7671-2.8794.5683-3.4638-.4439l-6.7725-11.7303c-.5844-1.0123.0188-2.4547 1.3474-3.2218 1.3286-.76703 2.8794-.56825 3.4638.444l6.7725 11.7303c.5844 1.0123-.0188 2.4547-1.3474 3.2217z" fill="#02db96"/><path d="m139.952 112.5c-.767 1.329-2.21 1.932-3.222 1.348l-11.73-6.773c-1.012-.584-1.211-2.135-.444-3.464.767-1.328 2.209-1.932 3.222-1.347l11.73 6.772c1.012.585 1.211 2.136.444 3.464z" fill="#02db96"/><path d="m25.4441 46.3889c-.767 1.3286-2.2095 1.9319-3.2217 1.3474l-11.7303-6.7725c-1.01228-.5844-1.21105-2.1352-.444-3.4638.7671-1.3286 2.2095-1.9318 3.2218-1.3474l11.7303 6.7725c1.0122.5844 1.211 2.1352.4439 3.4638z" fill="#02db96"/><path d="m46.3885 124.556c1.3286.767 1.9319 2.209 1.3475 3.222l-6.7725 11.73c-.5845 1.012-2.1353 1.211-3.4639.444-1.3285-.767-1.9318-2.21-1.3474-3.222l6.7725-11.73c.5844-1.012 2.1352-1.211 3.4638-.444z" fill="#02db96"/><path d="m25.4441 103.611c.767 1.329.5683 2.88-.444 3.464l-11.7303 6.773c-1.0123.584-2.4547-.019-3.2217-1.348-.7671-1.329-.56833-2.879.4439-3.464l11.7303-6.772c1.0123-.585 2.4547.019 3.2218 1.347z" fill="#02db96"/></g><path d="m51.1543 69.7116 21.6832 20.6572c2.3396 2.229 6.0243 2.2046 8.3342-.055l72.3923-70.815" stroke="#001a12" stroke-linecap="round" stroke-width="10"/></svg>